<svg xmlns="http://www.w3.org/2000/svg" viewBox="0 0 466 136" width="466" height="136"><defs><linearGradient id="g" gradientUnits="userSpaceOnUse" x1="38" y1="38" x2="100" y2="104"><stop offset="0" stop-color="#C6A2FF"/><stop offset="0.5" stop-color="#8B5CF6"/><stop offset="1" stop-color="#6724D6"/></linearGradient><linearGradient id="tile" gradientUnits="userSpaceOnUse" x1="68" y1="8" x2="68" y2="128"><stop offset="0" stop-color="#241241"/><stop offset="1" stop-color="#15082C"/></linearGradient><linearGradient id="gw" x1="0" y1="0" x2="1" y2="0"><stop offset="0" stop-color="#9A6BF2"/><stop offset="1" stop-color="#6724D6"/></linearGradient></defs><rect x="0" y="0" width="466" height="136" fill="#100722"/><rect x="8" y="8" width="120" height="120" rx="28" fill="url(#tile)"/><path d="M 62.29 72.19 A 20.5 20.5 0 1 1 86.68 44.05" fill="none" stroke="url(#g)" stroke-width="8.7" stroke-linecap="round"/>
<path d="M 101.92 75.75 A 20.5 20.5 0 0 1 79.41 96.15" fill="none" stroke="url(#g)" stroke-width="8.7" stroke-linecap="round"/>
<path d="M 67.22 60.96 A 20.5 20.5 0 0 1 101.92 75.75" fill="none" stroke="url(#g)" stroke-width="8.7" stroke-linecap="round"/>
<path d="M 75.08 75.75 A 20.5 20.5 0 1 1 37.92 63.80" fill="none" stroke="url(#g)" stroke-width="8.7" stroke-linecap="round"/>
<path d="M 74.48 70.85 A 20.5 20.5 0 0 1 75.08 75.75" fill="none" stroke="url(#g)" stroke-width="8.7" stroke-linecap="round"/><path d="M166.176 85.472Q159.936 85.472 156.216 81.99199999999999Q152.496 78.512 152.496 71.984V64.01599999999999Q152.496 57.488 156.216 54.007999999999996Q159.936 50.528 166.176 50.528Q172.464 50.528 176.16 54.007999999999996Q179.856 57.488 179.856 64.01599999999999V71.984Q179.856 78.512 176.16 81.99199999999999Q172.464 85.472 166.176 85.472ZM166.176 80.288Q169.92000000000002 80.288 172.008 78.104Q174.096 75.92 174.096 72.176V63.824Q174.096 60.08 172.008 57.896Q169.92000000000002 55.711999999999996 166.176 55.711999999999996Q162.48 55.711999999999996 160.392 57.896Q158.304 60.08 158.304 63.824V72.176Q158.304 75.92 160.392 78.104Q162.48 80.288 166.176 80.288Z" fill="#FFFFFF"/><path d="M185.556 94.39999999999999V61.087999999999994H190.98000000000002V64.208H191.79600000000002Q192.61200000000002 62.72 194.41200000000003 61.568Q196.21200000000002 60.416 199.57200000000003 60.416Q202.45200000000003 60.416 204.92400000000004 61.831999999999994Q207.39600000000002 63.248 208.88400000000001 65.984Q210.372 68.72 210.372 72.56V73.328Q210.372 77.16799999999999 208.88400000000001 79.904Q207.39600000000002 82.64 204.94800000000004 84.056Q202.50000000000003 85.472 199.57200000000003 85.472Q197.31600000000003 85.472 195.80400000000003 84.94399999999999Q194.29200000000003 84.416 193.35600000000002 83.55199999999999Q192.42000000000002 82.688 191.89200000000002 81.824H191.07600000000002V94.39999999999999ZM197.94000000000003 80.672Q200.96400000000003 80.672 202.90800000000002 78.728Q204.85200000000003 76.78399999999999 204.85200000000003 73.184V72.704Q204.85200000000003 69.056 202.88400000000001 67.136Q200.91600000000003 65.216 197.94000000000003 65.216Q194.96400000000003 65.216 192.97200000000004 67.136Q190.98000000000002 69.056 190.98000000000002 72.704V73.184Q190.98000000000002 76.78399999999999 192.97200000000004 78.728Q194.96400000000003 80.672 197.94000000000003 80.672Z" fill="#FFFFFF"/><path d="M226.77600000000004 85.472Q223.22400000000005 85.472 220.51200000000006 83.96Q217.80000000000004 82.448 216.28800000000004 79.68799999999999Q214.77600000000004 76.928 214.77600000000004 73.232V72.65599999999999Q214.77600000000004 68.91199999999999 216.26400000000004 66.17599999999999Q217.75200000000004 63.44 220.44000000000005 61.928Q223.12800000000004 60.416 226.63200000000003 60.416Q230.08800000000002 60.416 232.68000000000004 61.928Q235.27200000000005 63.44 236.71200000000005 66.17599999999999Q238.15200000000004 68.91199999999999 238.15200000000004 72.56V74.52799999999999H220.34400000000002Q220.44000000000003 77.312 222.312 78.99199999999999Q224.18400000000003 80.672 226.92000000000004 80.672Q229.60800000000003 80.672 230.90400000000005 79.496Q232.20000000000005 78.32 232.87200000000004 76.832L237.43200000000004 79.184Q236.76000000000005 80.47999999999999 235.48800000000006 81.94399999999999Q234.21600000000004 83.408 232.10400000000004 84.44Q229.99200000000005 85.472 226.77600000000004 85.472ZM220.39200000000002 70.352H232.53600000000003Q232.34400000000005 68.0 230.73600000000005 66.608Q229.12800000000004 65.216 226.58400000000003 65.216Q223.94400000000005 65.216 222.36000000000004 66.608Q220.77600000000004 68.0 220.39200000000002 70.352Z" fill="#FFFFFF"/><path d="M243.51600000000002 84.8V61.087999999999994H248.94000000000003V64.39999999999999H249.75600000000003Q250.38000000000002 63.056 252.01200000000003 61.855999999999995Q253.64400000000003 60.65599999999999 256.956 60.65599999999999Q259.692 60.65599999999999 261.80400000000003 61.903999999999996Q263.91600000000005 63.152 265.09200000000004 65.36Q266.26800000000003 67.568 266.26800000000003 70.592V84.8H260.74800000000005V71.024Q260.74800000000005 68.144 259.33200000000005 66.72800000000001Q257.91600000000005 65.312 255.32400000000004 65.312Q252.39600000000002 65.312 250.716 67.256Q249.03600000000003 69.2 249.03600000000003 72.8V84.8Z" fill="#FFFFFF"/><path d="M283.908 85.472Q280.356 85.472 277.548 83.912Q274.74 82.352 273.084 79.352Q271.428 76.352 271.428 71.984V64.01599999999999Q271.428 57.488 275.076 54.007999999999996Q278.724 50.528 284.868 50.528Q291.012 50.528 294.324 53.816Q297.636 57.104 297.636 62.672V62.864H291.97200000000004V62.48Q291.97200000000004 60.559999999999995 291.20400000000006 59.024Q290.43600000000004 57.488 288.85200000000003 56.599999999999994Q287.26800000000003 55.711999999999996 284.868 55.711999999999996Q281.31600000000003 55.711999999999996 279.276 57.896Q277.236 60.08 277.236 63.92V72.08Q277.236 75.872 279.276 78.128Q281.31600000000003 80.384 284.964 80.384Q288.612 80.384 290.29200000000003 78.416Q291.97200000000004 76.448 291.97200000000004 73.376V72.8H283.476V67.904H297.636V84.8H292.356V81.488H291.54Q291.156 82.352 290.34000000000003 83.28800000000001Q289.524 84.224 288.012 84.848Q286.5 85.472 283.908 85.472Z" fill="url(#gw)"/><path d="M314.712 85.472Q311.16 85.472 308.448 83.96Q305.736 82.448 304.224 79.68799999999999Q302.712 76.928 302.712 73.232V72.65599999999999Q302.712 68.91199999999999 304.2 66.17599999999999Q305.688 63.44 308.376 61.928Q311.064 60.416 314.56800000000004 60.416Q318.024 60.416 320.616 61.928Q323.208 63.44 324.648 66.17599999999999Q326.088 68.91199999999999 326.088 72.56V74.52799999999999H308.28000000000003Q308.37600000000003 77.312 310.24800000000005 78.99199999999999Q312.12 80.672 314.856 80.672Q317.54400000000004 80.672 318.84000000000003 79.496Q320.136 78.32 320.808 76.832L325.368 79.184Q324.696 80.47999999999999 323.42400000000004 81.94399999999999Q322.15200000000004 83.408 320.04 84.44Q317.928 85.472 314.712 85.472ZM308.32800000000003 70.352H320.47200000000004Q320.28000000000003 68.0 318.672 66.608Q317.064 65.216 314.52000000000004 65.216Q311.88 65.216 310.296 66.608Q308.712 68.0 308.32800000000003 70.352Z" fill="url(#gw)"/><path d="M331.45200000000006 84.8V61.087999999999994H336.87600000000003V64.39999999999999H337.692Q338.31600000000003 63.056 339.94800000000004 61.855999999999995Q341.58000000000004 60.65599999999999 344.89200000000005 60.65599999999999Q347.62800000000004 60.65599999999999 349.74 61.903999999999996Q351.85200000000003 63.152 353.028 65.36Q354.20400000000006 67.568 354.20400000000006 70.592V84.8H348.684V71.024Q348.684 68.144 347.26800000000003 66.72800000000001Q345.85200000000003 65.312 343.26000000000005 65.312Q340.33200000000005 65.312 338.65200000000004 67.256Q336.97200000000004 69.2 336.97200000000004 72.8V84.8Z" fill="url(#gw)"/><path d="M371.52 85.472Q367.968 85.472 365.256 83.96Q362.544 82.448 361.032 79.68799999999999Q359.52 76.928 359.52 73.232V72.65599999999999Q359.52 68.91199999999999 361.008 66.17599999999999Q362.496 63.44 365.18399999999997 61.928Q367.872 60.416 371.37600000000003 60.416Q374.832 60.416 377.424 61.928Q380.016 63.44 381.456 66.17599999999999Q382.896 68.91199999999999 382.896 72.56V74.52799999999999H365.088Q365.184 77.312 367.05600000000004 78.99199999999999Q368.928 80.672 371.664 80.672Q374.35200000000003 80.672 375.648 79.496Q376.944 78.32 377.616 76.832L382.176 79.184Q381.504 80.47999999999999 380.232 81.94399999999999Q378.96000000000004 83.408 376.848 84.44Q374.736 85.472 371.52 85.472ZM365.136 70.352H377.28000000000003Q377.088 68.0 375.48 66.608Q373.872 65.216 371.32800000000003 65.216Q368.688 65.216 367.104 66.608Q365.52 68.0 365.136 70.352Z" fill="url(#gw)"/><path d="M388.26000000000005 84.8V61.087999999999994H393.684V63.824H394.5Q395.028 62.336 396.276 61.664Q397.524 60.992 399.252 60.992H402.132V65.888H399.156Q396.75600000000003 65.888 395.26800000000003 67.16Q393.78000000000003 68.43199999999999 393.78000000000003 71.072V84.8Z" fill="url(#gw)"/><path d="M414.07200000000006 85.472Q411.576 85.472 409.56000000000006 84.584Q407.54400000000004 83.696 406.36800000000005 82.01599999999999Q405.19200000000006 80.336 405.19200000000006 77.88799999999999Q405.19200000000006 75.488 406.36800000000005 73.856Q407.54400000000004 72.22399999999999 409.60800000000006 71.38399999999999Q411.672 70.544 414.31200000000007 70.544H421.17600000000004V69.104Q421.17600000000004 67.232 420.02400000000006 66.056Q418.87200000000007 64.88 416.42400000000004 64.88Q414.02400000000006 64.88 412.80000000000007 66.008Q411.576 67.136 411.19200000000006 68.91199999999999L406.10400000000004 67.232Q406.68000000000006 65.36 407.95200000000006 63.824Q409.22400000000005 62.288 411.336 61.352Q413.44800000000004 60.416 416.52000000000004 60.416Q421.17600000000004 60.416 423.84000000000003 62.744Q426.504 65.072 426.504 69.488V78.8Q426.504 80.24 427.84800000000007 80.24H429.86400000000003V84.8H425.97600000000006Q424.24800000000005 84.8 423.144 83.936Q422.04 83.072 422.04 81.584V81.488H421.22400000000005Q420.93600000000004 82.16 420.216 83.12Q419.49600000000004 84.08 418.03200000000004 84.776Q416.56800000000004 85.472 414.07200000000006 85.472ZM414.98400000000004 80.96Q417.72 80.96 419.44800000000004 79.4Q421.17600000000004 77.84 421.17600000000004 75.2V74.72H414.648Q412.87200000000007 74.72 411.76800000000003 75.488Q410.66400000000004 76.256 410.66400000000004 77.744Q410.66400000000004 79.184 411.81600000000003 80.072Q412.9680000000001 80.96 414.98400000000004 80.96Z" fill="url(#gw)"/><path d="M434.1240000000001 84.8V51.199999999999996H439.64400000000006V84.8Z" fill="url(#gw)"/></svg>