<svg xmlns="http://www.w3.org/2000/svg" viewBox="0 0 120 120" width="120" height="120"><defs>
    <linearGradient id="gI" gradientUnits="userSpaceOnUse" x1="28" y1="26" x2="94" y2="96"><stop offset="0" stop-color="#C6A2FF"/><stop offset="0.5" stop-color="#8B5CF6"/><stop offset="1" stop-color="#6724D6"/></linearGradient>
    <linearGradient id="tileI" gradientUnits="userSpaceOnUse" x1="60" y1="0" x2="60" y2="120"><stop offset="0" stop-color="#241241"/><stop offset="1" stop-color="#15082C"/></linearGradient>
  </defs>
  <rect x="0" y="0" width="120" height="120" rx="27" fill="url(#tileI)"/>
  <path d="M 54.29 65.19 A 20.5 20.5 0 1 1 78.68 37.05" fill="none" stroke="url(#gI)" stroke-width="8.7" stroke-linecap="round"/>
<path d="M 93.92 68.75 A 20.5 20.5 0 0 1 71.41 89.15" fill="none" stroke="url(#gI)" stroke-width="8.7" stroke-linecap="round"/>
<path d="M 59.22 53.96 A 20.5 20.5 0 0 1 93.92 68.75" fill="none" stroke="url(#gI)" stroke-width="8.7" stroke-linecap="round"/>
<path d="M 67.08 68.75 A 20.5 20.5 0 1 1 29.92 56.80" fill="none" stroke="url(#gI)" stroke-width="8.7" stroke-linecap="round"/>
<path d="M 66.48 63.85 A 20.5 20.5 0 0 1 67.08 68.75" fill="none" stroke="url(#gI)" stroke-width="8.7" stroke-linecap="round"/>
</svg>